<svg xmlns="http://www.w3.org/2000/svg" width="31.086" height="25.048" viewBox="0 0 31.086 25.048">
  <g id="category" transform="translate(-4.457 -7.5)">
    <path id="id_101" d="M20,21.569a.694.694,0,0,1-.282-.062L5.434,15.115A.76.76,0,0,1,5.46,13.73L19.746,8.049a.683.683,0,0,1,.508,0l14.285,5.679a.761.761,0,0,1,.027,1.387l-14.285,6.4a.7.7,0,0,1-.281.059Zm-12.374-7.1L19.965,19.99l12.409-5.522L20,9.549Z" fill="#232323" stroke="#232323" stroke-width="1"/>
    <path id="id_102" d="M5.434,20.49a.766.766,0,0,1-.376-.983.717.717,0,0,1,.659-.454A.68.68,0,0,1,6,19.115l13.967,6.249L34,19.115a.672.672,0,0,1,.283-.062.71.71,0,0,1,.656.454.764.764,0,0,1-.376.983L20,27.008Z" fill="#232323" stroke="#232323" stroke-width="1"/>
    <path id="id_103" d="M5.434,25.48a.763.763,0,0,1-.376-.981.717.717,0,0,1,.659-.454A.7.7,0,0,1,6,24.106l13.967,6.25L34,24.106a.7.7,0,0,1,.939.393.762.762,0,0,1-.375.981L20,32Z" fill="#232323" stroke="#232323" stroke-width="1"/>
  </g>
</svg>
