<svg xmlns="http://www.w3.org/2000/svg" viewBox="0 0 64 64"><defs><style>.cls-1{fill:#29abe2;}.cls-2{fill:#ccc;}.cls-3{fill:#999;}</style></defs><g id="Layer_9" data-name="Layer 9"><polygon class="cls-1" points="41 32.83 41 36.25 45 36.25 45 26.75 41 26.75 41 32.83"/><rect class="cls-1" x="41" y="37.75" width="4" height="9.5"/><rect class="cls-1" x="9.75" y="38.75" width="4.5" height="4.5"/><rect class="cls-1" x="54.75" y="28.75" width="1.5" height="12.5"/><rect class="cls-1" x="33.75" y="16.75" width="2.5" height="2.5"/><path class="cls-2" d="M53,15.63l-6,7.71V51H59V23.34ZM57.75,42a.76.76,0,0,1-.75.75H54a.76.76,0,0,1-.75-.75V28a.76.76,0,0,1,.75-.75h3a.76.76,0,0,1,.75.75Z"/><path class="cls-2" d="M22.71,30.44,20,33.24V51H39V33.24l-9.5-9.8Z"/><path class="cls-2" d="M19.56,13.79c.27.44,3.64,3.66,3.44,4.21v9.27l5.78-6a1.05,1.05,0,0,1,1.44,0L39,30.37V15.26L28.5,5.37ZM32.25,16a.76.76,0,0,1,.75-.75h4a.76.76,0,0,1,.75.75v4a.76.76,0,0,1-.75.75H33a.76.76,0,0,1-.75-.75Z"/><path class="cls-2" d="M21,18.38,13,9.5,5,18.38V51H18V32.83c-.16-.62,2.7-3,3-3.5ZM15.75,44a.76.76,0,0,1-.75.75H9A.76.76,0,0,1,8.25,44V38A.76.76,0,0,1,9,37.25h6a.76.76,0,0,1,.75.75Z"/><polygon class="cls-3" points="53 15.63 51.42 16.86 57 24 57 51.25 59 51.25 59 23.31 53 15.63"/><path class="cls-3" d="M9.22,38h-2v7.81h8.53v-2H9.22Z"/><path class="cls-3" d="M39,15.26,28.22,5,26.85,6.48,37,16.12v3.51h-3.5V16h-2v5.63H37v9.54l-8.33-8.63-1.44,1.39L37,34.05V51h2V15.29h0Z"/><polygon class="cls-3" points="21 18.32 21 17.87 20.6 17.87 12.79 9.11 11.29 10.44 19 19.08 19 32 21 32 21 18.44 21.06 18.39 21 18.32"/><path d="M63,51H61V23a1,1,0,0,0-.21-.61l-7-9a1,1,0,0,0-1.58,0l-7,9c-.42.36-.13,2.38-.21,2.86H41V14.83a1,1,0,0,0-.31-.73L29.19,3.27a1,1,0,0,0-1.38,0l-9.59,9C17.8,12,13.58,6.67,13,7c-.56-.48-9.28,10.08-9.74,10.33A1,1,0,0,0,3,18V51H1a1,1,0,0,0,0,2H63A1,1,0,0,0,63,51ZM41,32.83V26.75h4v9.5H41Zm0,4.92h4v9.5H41Zm4,11V51H41V48.75ZM28.5,5.37,39,15.26V30.37L30.22,21.3a1.05,1.05,0,0,0-1.44,0l-5.78,6V18c.21-.53-3.19-3.78-3.44-4.21ZM17,51H5V18.38L13,9.5l8,8.88v11c-.32.48-3.15,2.87-3,3.5V51Zm5,0H20V33.24l9.5-9.8,9.5,9.8V51Zm25,0V23.34l6-7.71,6,7.71V51Z"/><path d="M15,37.25H9a.76.76,0,0,0-.75.75v6a.76.76,0,0,0,.75.75h6a.76.76,0,0,0,.75-.75V38A.76.76,0,0,0,15,37.25Zm-.75,6H9.75v-4.5h4.5Z"/><path d="M33,20.75h4a.76.76,0,0,0,.75-.75V16a.76.76,0,0,0-.75-.75H33a.76.76,0,0,0-.75.75v4A.76.76,0,0,0,33,20.75Zm.75-4h2.5v2.5h-2.5Z"/><path d="M57,27.25H54a.76.76,0,0,0-.75.75V42a.76.76,0,0,0,.75.75h3a.76.76,0,0,0,.75-.75V28A.76.76,0,0,0,57,27.25Zm-.75,14h-1.5V28.75h1.5Z"/></g></svg>