<svg xmlns="http://www.w3.org/2000/svg" width="33.301" height="40.3" viewBox="0 0 33.301 40.3">
  <g id="password" transform="translate(-8.4 -6.8)">
    <g id="Group_123" data-name="Group 123">
      <path id="id_101" d="M25.1,46.1A15.663,15.663,0,0,1,9.4,30.4V25.8a5.911,5.911,0,0,1,5.9-5.9H34.8a5.911,5.911,0,0,1,5.9,5.9v4.6A15.641,15.641,0,0,1,25.1,46.1ZM15.3,21.8a3.9,3.9,0,0,0-3.9,3.9v4.6a13.7,13.7,0,1,0,27.4,0V25.7a3.9,3.9,0,0,0-3.9-3.9Z" fill="#232323" stroke="#707070" stroke-width="2"/>
      <path id="id_102" d="M34.3,21.8a.945.945,0,0,1-1-1V18a8.2,8.2,0,0,0-16.4,0v2.8a1,1,0,0,1-2,0V18a10.2,10.2,0,0,1,20.4,0v2.8A1.075,1.075,0,0,1,34.3,21.8Z" fill="#232323" stroke="#707070" stroke-width="2"/>
      <path id="id_103" d="M25.1,36.4a.945.945,0,0,1-1-1V29.9a1,1,0,0,1,2,0v5.5A1,1,0,0,1,25.1,36.4Z" fill="#232323" stroke="#707070" stroke-width="2"/>
    </g>
  </g>
</svg>
